# xmcd
#
# Track frame offsets: 
#        150
#        4189
#        20380
#        37998
#        50351
#        59122
#        74109
#        100200
#        112112
#        125730
#
# Disc length: 1857 seconds
#
# Revision: 0
# Processed by: cddbd v1.5.2PL0 Copyright (c) Steve Scherf et al.
# Submitted via: ExactAudioCopy v0.99pb5
#
DISCID=92073f0a
DTITLE=Annotations Of An Autopsy - Before The Throne Of Infection
DYEAR=2008
DGENRE=Death Metal
TTITLE0=Rise Of The Leviathan
TTITLE1=Keeper Of The Plaguelands
TTITLE2=Human Dust
TTITLE3=Sludge City
TTITLE4=The Childsnatcher
TTITLE5=Prosthetic Erection
TTITLE6=Years Of Disgust
TTITLE7=Fisted To The Point Of Regurgitation
TTITLE8=Deities
TTITLE9=Before The Throne Of Infection
EXTD=
EXTT0=
EXTT1=
EXTT2=
EXTT3=
EXTT4=
EXTT5=
EXTT6=
EXTT7=
EXTT8=
EXTT9=
PLAYORDER=
